<?xml version="1.0" encoding="utf-8"?>
<!-- Generator: Adobe Illustrator 15.1.0, SVG Export Plug-In . SVG Version: 6.00 Build 0)  -->
<!DOCTYPE svg PUBLIC "-//W3C//DTD SVG 1.1//EN" "http://www.w3.org/Graphics/SVG/1.1/DTD/svg11.dtd">
<svg version="1.1" xmlns="http://www.w3.org/2000/svg" xmlns:xlink="http://www.w3.org/1999/xlink" x="0px" y="0px" width="80px"
	 height="80px" viewBox="0 0 80 80" enable-background="new 0 0 80 80" xml:space="preserve">
<g id="Vrstva_1" display="none">
	<g display="inline">
		<path fill="#FFFFFF" d="M8,7v64h64V7H8z M49,25h4l6,20h-3l-5-17l-5,17h-3L49,25z M23,25h4l5,16l5-16h4v20h-3V30l-5,15h-2l-5-14v14
			h-3V25z M58,55H22v-3h36V55z M58,50H22v-1h36V50z"/>
	</g>
</g>
<g id="Vrstva_1_kopie">
	<path fill="#FFFFFF" d="M40,2C19.013,2,2,19.013,2,40c0,20.987,17.013,38,38,38c20.986,0,38-17.013,38-38C78,19.013,60.986,2,40,2z
		 M40,53h-3V39l-5,14h-2l-5-14v14h-3V29h3l6,18l6-18h3V53z M56,53l-5-20l-5,20h-3l6-24h4l6,24H56z"/>
</g>
</svg>
